HIERARCHY
ROOT SpineBase
{
  OFFSET 0.000000 0.000000 0.000000
  CHANNELS 6 Xposition Yposition Zposition Zrotation Xrotation Yrotation
  JOINT SpineMid
  {
    OFFSET 0.000000 33.526239 0.000000
    CHANNELS 3 Zrotation Xrotation Yrotation
    JOINT SpineShoulder
    {
      OFFSET -0.240389 24.866383 -0.796792
      CHANNELS 3 Zrotation Xrotation Yrotation
      JOINT Neck
      {
        OFFSET -0.150615 8.263227 -0.641266
        CHANNELS 3 Zrotation Xrotation Yrotation
        JOINT Head
        {
          OFFSET 12.083024 -3.190569 0.508875
          CHANNELS 3 Zrotation Xrotation Yrotation
          End Site
          {
            OFFSET 0 0 0
          }
        }
      }
      JOINT ShoulderLeft
      {
        OFFSET -12.662678 -7.240058 -11.279408
        CHANNELS 3 Zrotation Xrotation Yrotation
        JOINT ElbowLeft
        {
          OFFSET -6.984568 -27.746372 4.137093
          CHANNELS 3 Zrotation Xrotation Yrotation
          JOINT WristLeft
          {
            OFFSET -5.473529 -21.989196 6.638115
            CHANNELS 3 Zrotation Xrotation Yrotation
            JOINT HandLeft
            {
              OFFSET 0.142166 -5.878162 0.552424
              CHANNELS 3 Zrotation Xrotation Yrotation
              JOINT HandTipLeft
              {
                OFFSET -1.401819 -6.184988 0.343705
                CHANNELS 3 Zrotation Xrotation Yrotation
                End Site
                {
                  OFFSET 0 0 0
                }
              }
              JOINT ThumbLeft
              {
                OFFSET 3.023168 0.977152 -3.305306
                CHANNELS 3 Zrotation Xrotation Yrotation
                End Site
                {
                  OFFSET 0 0 0
                }
              }
            }
          }
        }
      }
      JOINT ShoulderRight
      {
        OFFSET -1.741958 -0.447244 -8.923496
        CHANNELS 3 Zrotation Xrotation Yrotation
        JOINT ElbowRight
        {
          OFFSET 14.688917 -23.151384 7.064285
          CHANNELS 3 Zrotation Xrotation Yrotation
          JOINT WristRight
          {
            OFFSET 8.177926 -25.849058 7.798934
            CHANNELS 3 Zrotation Xrotation Yrotation
            JOINT HandRight
            {
              OFFSET 4.050954 -8.481511 5.304207
              CHANNELS 3 Zrotation Xrotation Yrotation
              JOINT HandTipRight
              {
                OFFSET 1.004418 -8.123019 0.754781
                CHANNELS 3 Zrotation Xrotation Yrotation
                End Site
                {
                  OFFSET 0 0 0
                }
              }
              JOINT ThumbRight
              {
                OFFSET -3.592274 -0.630579 -2.118330
                CHANNELS 3 Zrotation Xrotation Yrotation
                End Site
                {
                  OFFSET 0 0 0
                }
              }
            }
          }
        }
      }
    }
  }
  JOINT HipLeft
  {
    OFFSET -6.963644 1.654239 -4.706130
    CHANNELS 3 Zrotation Xrotation Yrotation
    JOINT KneeLeft
    {
      OFFSET 15.823168 -31.334590 6.372124
      CHANNELS 3 Zrotation Xrotation Yrotation
      JOINT AnkleLeft
      {
        OFFSET -18.844976 -32.222535 -14.996449
        CHANNELS 3 Zrotation Xrotation Yrotation
        JOINT FootLeft
        {
          OFFSET 0.400377 -3.578125 -13.211710
          CHANNELS 3 Zrotation Xrotation Yrotation
          End Site
          {
            OFFSET 0 0 0
          }
        }
      }
    }
  }
  JOINT HipRight
  {
    OFFSET 4.471787 0.762870 -2.053748
    CHANNELS 3 Zrotation Xrotation Yrotation
    JOINT KneeRight
    {
      OFFSET -14.476100 -35.008678 -4.872746
      CHANNELS 3 Zrotation Xrotation Yrotation
      JOINT AnkleRight
      {
        OFFSET 18.228640 -30.507447 8.985463
        CHANNELS 3 Zrotation Xrotation Yrotation
        JOINT FootRight
        {
          OFFSET -10.510247 -2.036507 -11.386277
          CHANNELS 3 Zrotation Xrotation Yrotation
          End Site
          {
            OFFSET 0 0 0
          }
        }
      }
    }
  }
}
MOTION
Frames: 12
Frame Time: 0.033333
81.753716 73.285109 326.417363 -0.844526 0.109597 -7.127044 0.851597 -0.003962 7.127882 -0.554126 0.762562 -0.025431 77.722084 -10.178240 -3.099557 0.000000 0.000000 0.000000 -0.513812 2.012930 -0.814577 1.817169 0.115288 0.412093 5.797935 -5.757354 1.498545 1.556366 11.335130 -2.877905 0.000000 0.000000 0.000000 0.000000 0.000000 0.000000 -6.496306 -3.030826 -3.920792 -10.746830 -1.402547 -2.888331 -8.654466 17.507629 2.194636 23.435905 -14.199810 10.514118 0.000000 0.000000 0.000000 0.000000 0.000000 0.000000 2.857455 -0.386964 7.211436 -1.942025 0.631493 -0.066008 1.087337 -0.238614 -4.064634 0.000000 0.000000 0.000000 -2.266676 -0.413697 7.557577 4.349176 -1.703757 -1.067700 -0.851841 1.133720 1.395651 0.000000 0.000000 0.000000
81.688808 73.295630 326.470460 -0.859205 0.159166 -6.965116 0.872166 -0.053786 6.966719 -0.549834 0.840286 -0.023337 77.019723 -10.174117 -3.108519 0.000000 0.000000 0.000000 -0.339523 1.703497 -0.735918 1.401910 0.518798 0.196918 5.786326 -5.046142 1.570551 -0.434952 10.902997 -2.796784 0.000000 0.000000 0.000000 0.000000 0.000000 0.000000 -6.755709 -3.025042 -3.968312 -10.316602 -1.497883 -2.838481 -9.666940 15.917312 0.200397 23.017146 -9.399620 11.954584 0.000000 0.000000 0.000000 0.000000 0.000000 0.000000 2.759834 -0.284764 7.114937 -1.844582 0.462816 -0.135190 1.077941 -0.212146 -4.023626 0.000000 0.000000 0.000000 -1.868529 -0.336435 7.315913 3.684193 -1.778663 -1.076391 -0.617178 1.125728 1.844572 0.000000 0.000000 0.000000
81.750079 73.315221 326.527383 -0.738460 0.187778 -6.832935 0.755556 -0.098573 6.834795 -0.503735 0.876988 -0.019265 77.343631 -10.767664 -3.456526 0.000000 0.000000 0.000000 -0.147121 1.497180 -0.665348 1.022587 0.863670 0.020667 5.632236 -4.879379 1.621873 -2.362020 10.923328 -2.730090 0.000000 0.000000 0.000000 0.000000 0.000000 0.000000 -7.291017 -3.097425 -4.187544 -9.553127 -1.510468 -2.585785 -9.783577 15.568290 -0.137111 21.065443 -6.065446 12.187172 0.000000 0.000000 0.000000 0.000000 0.000000 0.000000 2.629287 -0.337402 6.980850 -1.830874 0.464572 -0.131501 1.063722 -0.199644 -3.968064 0.000000 0.000000 0.000000 -1.772637 -0.360950 7.158750 3.257836 -1.726025 -1.097651 -0.436867 1.130086 1.858851 0.000000 0.000000 0.000000
81.787197 73.330500 326.575936 -0.654092 0.224306 -6.567997 0.675458 -0.148004 6.570150 -0.462081 0.898851 -0.015862 76.893675 -11.228000 -3.839922 0.000000 0.000000 0.000000 0.074502 1.333596 -0.596436 0.711721 1.308703 -0.153770 6.784970 -4.362062 1.902634 -4.229078 10.299460 -2.837602 0.000000 0.000000 0.000000 0.000000 0.000000 0.000000 -8.018516 -3.213315 -4.523599 -8.458368 -1.468689 -2.178067 -9.149316 16.375097 1.018043 18.665493 -4.872601 11.229583 0.000000 0.000000 0.000000 0.000000 0.000000 0.000000 2.410589 -0.350317 6.720560 -1.699574 0.403792 -0.136875 1.041312 -0.181841 -3.881012 0.000000 0.000000 0.000000 -1.585769 -0.492735 6.907561 2.865724 -1.535748 -1.122264 -0.287098 1.055209 1.856785 0.000000 0.000000 0.000000
81.807235 73.361845 326.655492 -0.588927 0.234260 -6.257086 0.610953 -0.168666 6.259189 -0.429963 0.875246 -0.014139 76.550730 -12.063878 -4.550945 0.000000 0.000000 0.000000 0.375770 0.931010 -0.443018 0.507160 2.167079 -0.392500 7.712310 -4.400143 2.181967 -4.469834 12.385925 -3.625064 0.000000 0.000000 0.000000 0.000000 0.000000 0.000000 -8.950667 -3.235288 -4.902325 -7.218799 -1.445055 -1.758250 -6.508302 17.827910 3.701636 16.056213 -7.568627 8.204284 0.000000 0.000000 0.000000 0.000000 0.000000 0.000000 2.194725 -0.285152 6.436069 -1.560751 0.293153 -0.166614 1.009186 -0.167941 -3.758978 0.000000 0.000000 0.000000 -1.489213 -0.614396 6.627974 2.781756 -1.348491 -1.104954 -0.411110 1.091563 1.628157 0.000000 0.000000 0.000000
81.858171 73.437368 326.742027 -0.478044 0.242914 -5.244376 0.498249 -0.198194 5.246251 -0.315765 0.896348 -0.005701 75.253910 -12.343393 -4.942520 0.000000 0.000000 0.000000 0.538234 0.626103 -0.339748 0.642254 2.397587 -0.376829 6.215776 -2.880827 1.794374 -2.293660 6.806322 -2.500353 0.000000 0.000000 0.000000 0.000000 0.000000 0.000000 -10.089241 -3.364591 -5.397772 -5.523037 -1.381977 -1.160690 -7.217985 20.034915 5.469241 12.369444 -7.742381 6.455568 0.000000 0.000000 0.000000 0.000000 0.000000 0.000000 1.831330 -0.086370 5.514698 -1.337654 0.016769 -0.264940 0.933510 -0.131903 -3.471142 0.000000 0.000000 0.000000 -1.458016 -0.908646 5.722976 2.770384 -0.939593 -1.134402 -0.470554 0.936076 1.558943 0.000000 0.000000 0.000000
81.872864 73.511311 326.890552 -0.354948 0.288970 -4.794856 0.377864 -0.258283 4.796603 -0.180802 0.970082 0.005185 72.952952 -10.049898 -3.387408 0.000000 0.000000 0.000000 0.529128 1.049079 -0.460314 0.615996 1.828954 -0.215900 5.487416 -4.294364 1.682886 -3.504077 6.537367 -1.941919 0.000000 0.000000 0.000000 0.000000 0.000000 0.000000 -10.871546 -3.545597 -5.764151 -4.562562 -1.303023 -0.785157 -9.872169 24.625644 8.866068 10.650933 -9.951224 4.591071 0.000000 0.000000 0.000000 0.000000 0.000000 0.000000 1.580854 0.109836 5.180751 -1.231320 -0.257971 -0.385362 0.949402 -0.116809 -3.526607 0.000000 0.000000 0.000000 -1.442588 -1.226325 5.369377 3.073250 -0.516033 -1.034204 -0.838071 0.712156 1.495026 0.000000 0.000000 0.000000
81.930420 73.579890 327.088453 -0.179341 0.290670 -5.275959 0.205312 -0.272946 5.276903 -0.029767 0.981379 0.015844 72.297185 -10.678399 -3.954982 0.000000 0.000000 0.000000 -0.310843 2.245183 -0.877845 0.184960 1.786026 -0.428791 8.577296 -10.749569 3.070022 -7.609846 10.269398 -1.176980 0.000000 0.000000 0.000000 0.000000 0.000000 0.000000 -11.671631 -3.342706 -5.878956 -3.753488 -1.403771 -0.671437 -11.565337 27.288474 11.079017 7.167712 -9.303653 2.851322 0.000000 0.000000 0.000000 0.000000 0.000000 0.000000 1.001181 0.384463 5.741927 -0.857684 -0.574448 -0.470098 1.022354 -0.125283 -3.798047 0.000000 0.000000 0.000000 -1.522645 -1.267203 5.846424 2.999983 -0.248138 -0.884530 -0.787190 0.373546 1.537891 0.000000 0.000000 0.000000
81.893703 73.371874 327.174873 -0.336375 0.137030 -8.370977 0.352741 -0.086598 8.371646 -0.000000 0.000000 0.000000 73.735507 -15.914628 -9.028011 0.000000 0.000000 0.000000 -1.389686 4.834683 -1.370679 1.286761 0.572571 0.100879 7.198133 -15.095044 3.011649 -8.761620 8.920180 0.675742 0.000000 0.000000 0.000000 0.000000 0.000000 0.000000 -6.766076 -6.060272 -6.404436 -7.859191 1.137901 0.815412 -12.372427 26.061510 9.400003 4.720437 -4.093777 4.262186 0.000000 0.000000 0.000000 0.000000 0.000000 0.000000 2.499815 -0.089115 8.645042 -1.275284 -0.855329 0.033873 0.344589 3.278600 -4.182844 0.000000 0.000000 0.000000 -1.362373 -0.894275 8.833963 3.117430 -0.304621 -0.597211 -0.870345 0.082817 1.599815 0.000000 0.000000 0.000000
81.587163 73.108865 327.056248 -0.881655 -0.043630 -13.569767 -0.245316 -0.143825 13.530401 -0.196018 0.292149 -0.059894 77.250862 -23.058223 -13.860647 0.000000 0.000000 0.000000 -0.942689 7.342964 -1.995653 2.754667 -3.354619 1.514211 0.547539 -15.708388 0.824749 -3.305170 5.826052 1.853349 0.000000 0.000000 0.000000 0.000000 0.000000 0.000000 -4.911028 -6.688579 -6.430780 -5.850682 -0.053876 0.884482 -13.568640 25.503031 8.315875 0.570366 -2.563879 3.858630 0.000000 0.000000 0.000000 0.000000 0.000000 0.000000 4.205902 -0.846026 13.266338 -2.284465 0.801613 0.620587 0.404636 2.495538 -4.089135 0.000000 0.000000 0.000000 -0.350416 -0.251528 13.829924 2.755581 -0.478651 -0.227929 -1.082077 -0.073790 1.714254 0.000000 0.000000 0.000000
81.260885 72.704870 326.586690 -1.825650 -0.322266 -16.120559 -0.285270 -0.291791 16.037543 -0.273834 0.263101 -0.113423 79.667931 -32.849816 -21.360617 0.000000 0.000000 0.000000 -1.928411 11.468815 -2.854855 4.680386 -4.048692 2.223932 -2.178157 -36.615385 -0.127792 0.175571 20.199555 3.305854 0.000000 0.000000 0.000000 0.000000 0.000000 0.000000 -6.656565 -4.032624 -5.843248 -3.454592 -2.064523 -0.212652 -12.671420 23.030013 6.160928 2.195989 -2.485694 5.644287 0.000000 0.000000 0.000000 0.000000 0.000000 0.000000 5.879997 -1.637033 15.060318 -3.438803 3.460387 1.177367 0.865460 -1.600687 -3.541276 0.000000 0.000000 0.000000 0.653167 -0.087564 16.521679 2.742040 -0.091310 -0.370851 -1.150743 -0.098029 1.904113 0.000000 0.000000 0.000000
81.136550 72.095042 325.653792 -2.840735 -0.454545 -17.702472 -0.116426 -0.172077 17.586561 -0.148554 0.344143 -0.136939 80.434899 -40.358150 -27.110063 0.000000 0.000000 0.000000 -4.005376 16.604180 -3.928839 8.514040 -7.118899 4.508943 -7.367880 -50.303561 -3.297875 5.246911 27.964689 2.837292 0.000000 0.000000 0.000000 0.000000 0.000000 0.000000 -12.826792 0.717369 -4.627740 0.809676 -4.650942 -1.875409 -10.944986 20.826236 4.560279 4.691528 -7.247992 5.901986 0.000000 0.000000 0.000000 0.000000 0.000000 0.000000 7.125203 -3.170594 15.545126 -4.277527 6.314325 2.444199 1.519156 -7.955921 -3.292296 0.000000 0.000000 0.000000 1.244589 -0.975802 18.661609 3.833691 0.982437 -0.947037 -1.535107 -0.018294 1.933325 0.000000 0.000000 0.000000
